<svg xmlns="http://www.w3.org/2000/svg" baseProfile="full" version="1.1" width="310px" height="310px" style="fill: none; width: 310px; height: 310px; stroke-width: 31;"><path d="" style="stroke-width: 10; stroke-linecap: round; stroke-linejoin: round; stroke: rgb(68, 68, 68); fill: none;"></path><path d="" style="stroke-width: 10; stroke-linecap: round; stroke-linejoin: round; stroke: rgb(119, 119, 119); fill: none;"></path><path d="M155,155 L155,155 L35,155 L35,155 L35,155 M155,155 L155,155 L155,275 M35,155 A120,120 0 0,0 155,275 M35,155 A120,120 0 0,1 155,35 A0,0 0 0,1 155,35 A120,120 0 0,1 275,155 A0,0 0 0,1 275,155 A120,120 0 0,1 155,275 M155,155 L155,155 L155,125 L155,125 L260,125 " style="stroke-width: 31; stroke-linecap: butt; stroke-linejoin: miter; stroke: rgb(255, 255, 255); fill: none;"></path></svg>